<svg xmlns="http://www.w3.org/2000/svg" viewBox="0 0 640 400"><rect width="640" height="400" fill="#edf1f3"/><rect x="74" y="64" width="492" height="102" rx="20" fill="#d5e7df"/><path d="M75 145 206 92 327 145 481 97 565 145" fill="#a3c7b2"/><circle cx="146" cy="113" r="13" fill="#147f77"/><rect x="133" y="126" width="26" height="25" rx="8" fill="#147f77"/><g fill="#d2e6e3" stroke="#9cbfba" stroke-width="2"><rect x="70" y="213" width="66" height="62" rx="9"/><rect x="152" y="213" width="66" height="62" rx="9"/><rect x="234" y="213" width="66" height="62" rx="9"/></g><g fill="#eedec8" stroke="#d8b388" stroke-width="2"><rect x="340" y="213" width="66" height="62" rx="9"/><rect x="422" y="213" width="66" height="62" rx="9"/><rect x="504" y="213" width="66" height="62" rx="9"/></g><rect x="340" y="213" width="66" height="62" rx="9" fill="none" stroke="#db873e" stroke-width="5"/><g font-family="sans-serif" font-size="26" fill="#456668" text-anchor="middle"><text x="103" y="253">1</text><text x="185" y="253">2</text><text x="267" y="253">0</text><text x="373" y="253">3</text><text x="455" y="253">0</text><text x="537" y="253">0</text></g><path d="M130 326H373V292m-10 12 10-12 10 12" fill="none" stroke="#db873e" stroke-width="5"/></svg>
