<svg xmlns="http://www.w3.org/2000/svg" viewBox="0 0 480 280"><rect width="480" height="280" fill="#edf4f0"/><g fill="#caddd3"><rect x="42" y="63" width="38" height="39" rx="5"/><rect x="91" y="63" width="38" height="39" rx="5"/><rect x="140" y="63" width="38" height="39" rx="5"/><rect x="189" y="63" width="38" height="39" rx="5"/><rect x="238" y="63" width="38" height="39" rx="5"/><rect x="287" y="63" width="38" height="39" rx="5"/></g><rect x="336" y="63" width="38" height="39" rx="5" fill="#188675"/><rect x="385" y="63" width="38" height="39" rx="5" fill="#caddd3"/><g fill="#188675"><rect x="55" y="149" width="38" height="82"/><rect x="109" y="167" width="38" height="64"/><rect x="163" y="184" width="38" height="47"/><rect x="217" y="196" width="38" height="35"/><rect x="271" y="211" width="38" height="20"/></g><rect x="325" y="173" width="38" height="58" fill="#db8750"/><path d="M42 232H427" stroke="#99b7aa" stroke-width="2"/></svg>
